{
  "asset": {
    "generator": "Khronos glTF Blender I/O v1.5.17",
    "version": "2.0"
  },
  "scene": 0,
  "scenes": [
    {
      "name": "Scene",
      "nodes": [0, 1, 2]
    }
  ],
  "nodes": [
    {
      "name": "Light",
      "rotation": [
        0.16907575726509094,
        0.7558803558349609,
        -0.27217137813568115,
        0.570947527885437
      ],
      "translation": [4.076245307922363, 5.903861999511719, -1.0054539442062378]
    },
    {
      "name": "Camera",
      "rotation": [
        0.483536034822464,
        0.33687159419059753,
        -0.20870360732078552,
        0.7804827094078064
      ],
      "translation": [7.358891487121582, 4.958309173583984, 6.925790786743164]
    },
    {
      "mesh": 0,
      "name": "AnonymousAnamankaSTRINGS",
      "rotation": [0.7071068286895752, 0, 0, 0.7071067094802856]
    }
  ],
  "materials": [
    {
      "doubleSided": true,
      "name": "8.001",
      "pbrMetallicRoughness": {
        "baseColorFactor": [
          0.8039000034332275,
          0.7764999866485596,
          0.45100000500679016,
          1
        ],
        "metallicFactor": 0
      }
    }
  ],
  "meshes": [
    {
      "name": "AnonymousAnamankaSTRINGS",
      "primitives": [
        {
          "attributes": {
            "POSITION": 0,
            "NORMAL": 1,
            "TEXCOORD_0": 2
          },
          "indices": 3,
          "material": 0
        }
      ]
    }
  ],
  "accessors": [
    {
      "bufferView": 0,
      "componentType": 5126,
      "count": 12645,
      "max": [6.817339897155762, 9.194836616516113, 8.056074142456055],
      "min": [-10.820618629455566, -5.713101387023926, -7.104366302490234],
      "type": "VEC3"
    },
    {
      "bufferView": 1,
      "componentType": 5126,
      "count": 12645,
      "type": "VEC3"
    },
    {
      "bufferView": 2,
      "componentType": 5126,
      "count": 12645,
      "type": "VEC2"
    },
    {
      "bufferView": 3,
      "componentType": 5123,
      "count": 70704,
      "type": "SCALAR"
    }
  ],
  "bufferViews": [
    {
      "buffer": 0,
      "byteLength": 151740,
      "byteOffset": 0
    },
    {
      "buffer": 0,
      "byteLength": 151740,
      "byteOffset": 151740
    },
    {
      "buffer": 0,
      "byteLength": 101160,
      "byteOffset": 303480
    },
    {
      "buffer": 0,
      "byteLength": 141408,
      "byteOffset": 404640
    }
  ],
  "buffers": [
    {
      "byteLength": 546048,
      "uri": "data:application/octet-stream;base64,"
    }
  ]
}
