{
    "asset" : {
        "generator" : "Khronos glTF Blender I/O v1.5.17",
        "version" : "2.0"
    },
    "scene" : 0,
    "scenes" : [
        {
            "name" : "Scene",
            "nodes" : [
                0,
                1,
                2
            ]
        }
    ],
    "nodes" : [
        {
            "name" : "Light",
            "rotation" : [
                0.16907575726509094,
                0.7558803558349609,
                -0.27217137813568115,
                0.570947527885437
            ],
            "translation" : [
                4.076245307922363,
                5.903861999511719,
                -1.0054539442062378
            ]
        },
        {
            "name" : "Camera",
            "rotation" : [
                0.483536034822464,
                0.33687159419059753,
                -0.20870360732078552,
                0.7804827094078064
            ],
            "translation" : [
                7.358891487121582,
                4.958309173583984,
                6.925790786743164
            ]
        },
        {
            "mesh" : 0,
            "name" : "ConjectureSpeculationSTRINGS",
            "rotation" : [
                0.7071068286895752,
                0,
                0,
                0.7071067094802856
            ]
        }
    ],
    "materials" : [
        {
            "doubleSided" : true,
            "name" : "5.001",
            "pbrMetallicRoughness" : {
                "baseColorFactor" : [
                    0.5450999736785889,
                    0.47450000047683716,
                    0.3686000108718872,
                    1
                ],
                "metallicFactor" : 0
            }
        }
    ],
    "meshes" : [
        {
            "name" : "ConjectureSpeculationSTRINGS",
            "primitives" : [
                {
                    "attributes" : {
                        "POSITION" : 0,
                        "NORMAL" : 1,
                        "TEXCOORD_0" : 2
                    },
                    "indices" : 3,
                    "material" : 0
                }
            ]
        }
    ],
    "accessors" : [
        {
            "bufferView" : 0,
            "componentType" : 5126,
            "count" : 7469,
            "max" : [
                6.817605495452881,
                2.7598938941955566,
                8.056196212768555
            ],
            "min" : [
                -10.820565223693848,
                -5.713248252868652,
                -7.103981018066406
            ],
            "type" : "VEC3"
        },
        {
            "bufferView" : 1,
            "componentType" : 5126,
            "count" : 7469,
            "type" : "VEC3"
        },
        {
            "bufferView" : 2,
            "componentType" : 5126,
            "count" : 7469,
            "type" : "VEC2"
        },
        {
            "bufferView" : 3,
            "componentType" : 5123,
            "count" : 41652,
            "type" : "SCALAR"
        }
    ],
    "bufferViews" : [
        {
            "buffer" : 0,
            "byteLength" : 89628,
            "byteOffset" : 0
        },
        {
            "buffer" : 0,
            "byteLength" : 89628,
            "byteOffset" : 89628
        },
        {
            "buffer" : 0,
            "byteLength" : 59752,
            "byteOffset" : 179256
        },
        {
            "buffer" : 0,
            "byteLength" : 83304,
            "byteOffset" : 239008
        }
    ],
    "buffers" : [
        {
            "byteLength" : 322312,
            "uri" : "data:application/octet-stream;base64,"
        }
    ]
}
