{
    "asset" : {
        "generator" : "Khronos glTF Blender I/O v1.5.17",
        "version" : "2.0"
    },
    "scene" : 0,
    "scenes" : [
        {
            "name" : "Scene",
            "nodes" : [
                0
            ]
        }
    ],
    "nodes" : [
        {
            "mesh" : 0,
            "name" : "MenstrationSTRINGS",
            "rotation" : [
                0.7071068286895752,
                0,
                0,
                0.7071067094802856
            ]
        }
    ],
    "materials" : [
        {
            "doubleSided" : true,
            "name" : "6.001",
            "pbrMetallicRoughness" : {
                "baseColorFactor" : [
                    0.8039000034332275,
                    0.4392000138759613,
                    0.3294000029563904,
                    1
                ],
                "metallicFactor" : 0
            }
        }
    ],
    "meshes" : [
        {
            "name" : "MenstrationSTRINGS",
            "primitives" : [
                {
                    "attributes" : {
                        "POSITION" : 0,
                        "NORMAL" : 1,
                        "TEXCOORD_0" : 2
                    },
                    "indices" : 3,
                    "material" : 0
                }
            ]
        }
    ],
    "accessors" : [
        {
            "bufferView" : 0,
            "componentType" : 5126,
            "count" : 7081,
            "max" : [
                6.818021297454834,
                7.664850234985352,
                7.34889554977417
            ],
            "min" : [
                -3.714362859725952,
                -7.965677738189697,
                -6.715760231018066
            ],
            "type" : "VEC3"
        },
        {
            "bufferView" : 1,
            "componentType" : 5126,
            "count" : 7081,
            "type" : "VEC3"
        },
        {
            "bufferView" : 2,
            "componentType" : 5126,
            "count" : 7081,
            "type" : "VEC2"
        },
        {
            "bufferView" : 3,
            "componentType" : 5123,
            "count" : 39456,
            "type" : "SCALAR"
        }
    ],
    "bufferViews" : [
        {
            "buffer" : 0,
            "byteLength" : 84972,
            "byteOffset" : 0
        },
        {
            "buffer" : 0,
            "byteLength" : 84972,
            "byteOffset" : 84972
        },
        {
            "buffer" : 0,
            "byteLength" : 56648,
            "byteOffset" : 169944
        },
        {
            "buffer" : 0,
            "byteLength" : 78912,
            "byteOffset" : 226592
        }
    ],
    "buffers" : [
        {
            "byteLength" : 305504,
            "uri" : "data:application/octet-stream;base64,"
        }
    ]
}
