{
    "asset" : {
        "generator" : "Khronos glTF Blender I/O v1.5.17",
        "version" : "2.0"
    },
    "scene" : 0,
    "scenes" : [
        {
            "name" : "Scene",
            "nodes" : [
                0
            ]
        }
    ],
    "nodes" : [
        {
            "mesh" : 0,
            "name" : "MenstrationNODE",
            "rotation" : [
                0.7071068286895752,
                0,
                0,
                0.7071067094802856
            ]
        }
    ],
    "materials" : [
        {
            "doubleSided" : true,
            "name" : "6",
            "pbrMetallicRoughness" : {
                "baseColorFactor" : [
                    0.8039000034332275,
                    0.4392000138759613,
                    0.3294000029563904,
                    1
                ],
                "metallicFactor" : 0
            }
        }
    ],
    "meshes" : [
        {
            "name" : "MenstrationNODE",
            "primitives" : [
                {
                    "attributes" : {
                        "POSITION" : 0,
                        "NORMAL" : 1,
                        "TEXCOORD_0" : 2
                    },
                    "indices" : 3,
                    "material" : 0
                }
            ]
        }
    ],
    "accessors" : [
        {
            "bufferView" : 0,
            "componentType" : 5126,
            "count" : 151,
            "max" : [
                0.257177472114563,
                7.896415710449219,
                4.684895992279053
            ],
            "min" : [
                -0.257177472114563,
                7.382060527801514,
                4.170541286468506
            ],
            "type" : "VEC3"
        },
        {
            "bufferView" : 1,
            "componentType" : 5126,
            "count" : 151,
            "type" : "VEC3"
        },
        {
            "bufferView" : 2,
            "componentType" : 5126,
            "count" : 151,
            "type" : "VEC2"
        },
        {
            "bufferView" : 3,
            "componentType" : 5123,
            "count" : 672,
            "type" : "SCALAR"
        }
    ],
    "bufferViews" : [
        {
            "buffer" : 0,
            "byteLength" : 1812,
            "byteOffset" : 0
        },
        {
            "buffer" : 0,
            "byteLength" : 1812,
            "byteOffset" : 1812
        },
        {
            "buffer" : 0,
            "byteLength" : 1208,
            "byteOffset" : 3624
        },
        {
            "buffer" : 0,
            "byteLength" : 1344,
            "byteOffset" : 4832
        }
    ],
    "buffers" : [
        {
            "byteLength" : 6176,
            "uri" : "data:application/octet-stream;base64,"
        }
    ]
}
