{
    "asset" : {
        "generator" : "Khronos glTF Blender I/O v1.5.17",
        "version" : "2.0"
    },
    "scene" : 0,
    "scenes" : [
        {
            "name" : "Scene",
            "nodes" : [
                0
            ]
        }
    ],
    "nodes" : [
        {
            "mesh" : 0,
            "name" : "MeralEkinciogluSTRINGS",
            "rotation" : [
                0.7071068286895752,
                0,
                0,
                0.7071067094802856
            ]
        }
    ],
    "materials" : [
        {
            "doubleSided" : true,
            "name" : "4.001",
            "pbrMetallicRoughness" : {
                "baseColorFactor" : [
                    0.9333000183105469,
                    0.8118000030517578,
                    0.6313999891281128,
                    1
                ],
                "metallicFactor" : 0
            }
        }
    ],
    "meshes" : [
        {
            "name" : "MeralEkinciogluSTRINGS",
            "primitives" : [
                {
                    "attributes" : {
                        "POSITION" : 0,
                        "NORMAL" : 1,
                        "TEXCOORD_0" : 2
                    },
                    "indices" : 3,
                    "material" : 0
                }
            ]
        }
    ],
    "accessors" : [
        {
            "bufferView" : 0,
            "componentType" : 5126,
            "count" : 8638,
            "max" : [
                6.697158336639404,
                9.194539070129395,
                8.056062698364258
            ],
            "min" : [
                -10.818502426147461,
                -5.713087558746338,
                -7.104330062866211
            ],
            "type" : "VEC3"
        },
        {
            "bufferView" : 1,
            "componentType" : 5126,
            "count" : 8638,
            "type" : "VEC3"
        },
        {
            "bufferView" : 2,
            "componentType" : 5126,
            "count" : 8638,
            "type" : "VEC2"
        },
        {
            "bufferView" : 3,
            "componentType" : 5123,
            "count" : 48252,
            "type" : "SCALAR"
        }
    ],
    "bufferViews" : [
        {
            "buffer" : 0,
            "byteLength" : 103656,
            "byteOffset" : 0
        },
        {
            "buffer" : 0,
            "byteLength" : 103656,
            "byteOffset" : 103656
        },
        {
            "buffer" : 0,
            "byteLength" : 69104,
            "byteOffset" : 207312
        },
        {
            "buffer" : 0,
            "byteLength" : 96504,
            "byteOffset" : 276416
        }
    ],
    "buffers" : [
        {
            "byteLength" : 372920,
            "uri" : "data:application/octet-stream;base64,"
        }
    ]
}
