{
    "asset" : {
        "generator" : "Khronos glTF Blender I/O v1.5.17",
        "version" : "2.0"
    },
    "scene" : 0,
    "scenes" : [
        {
            "name" : "Scene",
            "nodes" : [
                0
            ]
        }
    ],
    "nodes" : [
        {
            "mesh" : 0,
            "name" : "SitchSTRINGS",
            "rotation" : [
                0.7071068286895752,
                0,
                0,
                0.7071067094802856
            ]
        }
    ],
    "materials" : [
        {
            "doubleSided" : true,
            "name" : "2",
            "pbrMetallicRoughness" : {
                "baseColorFactor" : [
                    1,
                    0.7529000043869019,
                    0.2980000078678131,
                    1
                ],
                "metallicFactor" : 0
            }
        }
    ],
    "meshes" : [
        {
            "name" : "SitchSTRINGS",
            "primitives" : [
                {
                    "attributes" : {
                        "POSITION" : 0,
                        "NORMAL" : 1,
                        "TEXCOORD_0" : 2
                    },
                    "indices" : 3,
                    "material" : 0
                }
            ]
        }
    ],
    "accessors" : [
        {
            "bufferView" : 0,
            "componentType" : 5126,
            "count" : 5477,
            "max" : [
                5.573199272155762,
                5.091297626495361,
                6.299184799194336
            ],
            "min" : [
                -3.7143046855926514,
                -7.9656782150268555,
                -6.716296195983887
            ],
            "type" : "VEC3"
        },
        {
            "bufferView" : 1,
            "componentType" : 5126,
            "count" : 5477,
            "type" : "VEC3"
        },
        {
            "bufferView" : 2,
            "componentType" : 5126,
            "count" : 5477,
            "type" : "VEC2"
        },
        {
            "bufferView" : 3,
            "componentType" : 5123,
            "count" : 30570,
            "type" : "SCALAR"
        }
    ],
    "bufferViews" : [
        {
            "buffer" : 0,
            "byteLength" : 65724,
            "byteOffset" : 0
        },
        {
            "buffer" : 0,
            "byteLength" : 65724,
            "byteOffset" : 65724
        },
        {
            "buffer" : 0,
            "byteLength" : 43816,
            "byteOffset" : 131448
        },
        {
            "buffer" : 0,
            "byteLength" : 61140,
            "byteOffset" : 175264
        }
    ],
    "buffers" : [
        {
            "byteLength" : 236404,
            "uri" : "data:application/octet-stream;base64,"
        }
    ]
}
