{
    "asset" : {
        "generator" : "Khronos glTF Blender I/O v1.5.17",
        "version" : "2.0"
    },
    "scene" : 0,
    "scenes" : [
        {
            "name" : "Scene",
            "nodes" : [
                0
            ]
        }
    ],
    "nodes" : [
        {
            "mesh" : 0,
            "name" : "StitchNODE",
            "rotation" : [
                0.7071068286895752,
                0,
                0,
                0.7071067094802856
            ]
        }
    ],
    "materials" : [
        {
            "doubleSided" : true,
            "name" : "2.001",
            "pbrMetallicRoughness" : {
                "baseColorFactor" : [
                    1,
                    0.7529000043869019,
                    0.2980000078678131,
                    1
                ],
                "metallicFactor" : 0
            }
        }
    ],
    "meshes" : [
        {
            "name" : "StitchNODE",
            "primitives" : [
                {
                    "attributes" : {
                        "POSITION" : 0,
                        "NORMAL" : 1,
                        "TEXCOORD_0" : 2
                    },
                    "indices" : 3,
                    "material" : 0
                }
            ]
        }
    ],
    "accessors" : [
        {
            "bufferView" : 0,
            "componentType" : 5126,
            "count" : 151,
            "max" : [
                5.786773681640625,
                -7.353659152984619,
                6.514732360839844
            ],
            "min" : [
                5.272418975830078,
                -7.868013858795166,
                6.000377178192139
            ],
            "type" : "VEC3"
        },
        {
            "bufferView" : 1,
            "componentType" : 5126,
            "count" : 151,
            "type" : "VEC3"
        },
        {
            "bufferView" : 2,
            "componentType" : 5126,
            "count" : 151,
            "type" : "VEC2"
        },
        {
            "bufferView" : 3,
            "componentType" : 5123,
            "count" : 672,
            "type" : "SCALAR"
        }
    ],
    "bufferViews" : [
        {
            "buffer" : 0,
            "byteLength" : 1812,
            "byteOffset" : 0
        },
        {
            "buffer" : 0,
            "byteLength" : 1812,
            "byteOffset" : 1812
        },
        {
            "buffer" : 0,
            "byteLength" : 1208,
            "byteOffset" : 3624
        },
        {
            "buffer" : 0,
            "byteLength" : 1344,
            "byteOffset" : 4832
        }
    ],
    "buffers" : [
        {
            "byteLength" : 6176,
            "uri" : "data:application/octet-stream;base64,"
        }
    ]
}
