{
    "asset" : {
        "generator" : "Khronos glTF Blender I/O v1.5.17",
        "version" : "2.0"
    },
    "scene" : 0,
    "scenes" : [
        {
            "name" : "Scene",
            "nodes" : [
                0
            ]
        }
    ],
    "nodes" : [
        {
            "mesh" : 0,
            "name" : "TodaysDilemaSTRINGS",
            "rotation" : [
                0.7071068286895752,
                0,
                0,
                0.7071067094802856
            ]
        }
    ],
    "materials" : [
        {
            "doubleSided" : true,
            "name" : "9.001",
            "pbrMetallicRoughness" : {
                "baseColorFactor" : [
                    0.6274999976158142,
                    0.3215999901294708,
                    0.17649999260902405,
                    1
                ],
                "metallicFactor" : 0
            }
        }
    ],
    "meshes" : [
        {
            "name" : "TodaysDilemaSTRINGS",
            "primitives" : [
                {
                    "attributes" : {
                        "POSITION" : 0,
                        "NORMAL" : 1,
                        "TEXCOORD_0" : 2
                    },
                    "indices" : 3,
                    "material" : 0
                }
            ]
        }
    ],
    "accessors" : [
        {
            "bufferView" : 0,
            "componentType" : 5126,
            "count" : 10454,
            "max" : [
                6.817445278167725,
                7.664850234985352,
                7.349288463592529
            ],
            "min" : [
                -3.714076519012451,
                -7.965703010559082,
                -6.715957164764404
            ],
            "type" : "VEC3"
        },
        {
            "bufferView" : 1,
            "componentType" : 5126,
            "count" : 10454,
            "type" : "VEC3"
        },
        {
            "bufferView" : 2,
            "componentType" : 5126,
            "count" : 10454,
            "type" : "VEC2"
        },
        {
            "bufferView" : 3,
            "componentType" : 5123,
            "count" : 58320,
            "type" : "SCALAR"
        }
    ],
    "bufferViews" : [
        {
            "buffer" : 0,
            "byteLength" : 125448,
            "byteOffset" : 0
        },
        {
            "buffer" : 0,
            "byteLength" : 125448,
            "byteOffset" : 125448
        },
        {
            "buffer" : 0,
            "byteLength" : 83632,
            "byteOffset" : 250896
        },
        {
            "buffer" : 0,
            "byteLength" : 116640,
            "byteOffset" : 334528
        }
    ],
    "buffers" : [
        {
            "byteLength" : 451168,
            "uri" : "data:application/octet-stream;base64,"
        }
    ]
}
