{
    "asset" : {
        "generator" : "Khronos glTF Blender I/O v1.5.17",
        "version" : "2.0"
    },
    "scene" : 0,
    "scenes" : [
        {
            "name" : "Scene",
            "nodes" : [
                0
            ]
        }
    ],
    "nodes" : [
        {
            "mesh" : 0,
            "name" : "UmbrellaMomentsSTRINGS",
            "rotation" : [
                0.7071068286895752,
                0,
                0,
                0.7071067094802856
            ]
        }
    ],
    "materials" : [
        {
            "doubleSided" : true,
            "name" : "7.001",
            "pbrMetallicRoughness" : {
                "baseColorFactor" : [
                    0.6823999881744385,
                    0.2549000084400177,
                    0.07840000092983246,
                    1
                ],
                "metallicFactor" : 0
            }
        }
    ],
    "meshes" : [
        {
            "name" : "UmbrellaMomentsSTRINGS",
            "primitives" : [
                {
                    "attributes" : {
                        "POSITION" : 0,
                        "NORMAL" : 1,
                        "TEXCOORD_0" : 2
                    },
                    "indices" : 3,
                    "material" : 0
                }
            ]
        }
    ],
    "accessors" : [
        {
            "bufferView" : 0,
            "componentType" : 5126,
            "count" : 10930,
            "max" : [
                6.817445278167725,
                7.664478302001953,
                7.349445343017578
            ],
            "min" : [
                -10.82055377960205,
                -7.965703010559082,
                -7.104366302490234
            ],
            "type" : "VEC3"
        },
        {
            "bufferView" : 1,
            "componentType" : 5126,
            "count" : 10930,
            "type" : "VEC3"
        },
        {
            "bufferView" : 2,
            "componentType" : 5126,
            "count" : 10930,
            "type" : "VEC2"
        },
        {
            "bufferView" : 3,
            "componentType" : 5123,
            "count" : 61020,
            "type" : "SCALAR"
        }
    ],
    "bufferViews" : [
        {
            "buffer" : 0,
            "byteLength" : 131160,
            "byteOffset" : 0
        },
        {
            "buffer" : 0,
            "byteLength" : 131160,
            "byteOffset" : 131160
        },
        {
            "buffer" : 0,
            "byteLength" : 87440,
            "byteOffset" : 262320
        },
        {
            "buffer" : 0,
            "byteLength" : 122040,
            "byteOffset" : 349760
        }
    ],
    "buffers" : [
        {
            "byteLength" : 471800,
            "uri" : "data:application/octet-stream;base64,"
        }
    ]
}
