{
    "asset" : {
        "generator" : "Khronos glTF Blender I/O v1.5.17",
        "version" : "2.0"
    },
    "scene" : 0,
    "scenes" : [
        {
            "name" : "Scene",
            "nodes" : [
                0
            ]
        }
    ],
    "nodes" : [
        {
            "mesh" : 0,
            "name" : "VirginiaSTRINGS",
            "rotation" : [
                0.7071068286895752,
                0,
                0,
                0.7071067094802856
            ]
        }
    ],
    "materials" : [
        {
            "doubleSided" : true,
            "name" : "1.001",
            "pbrMetallicRoughness" : {
                "baseColorFactor" : [
                    1,
                    0.49799999594688416,
                    0.49799999594688416,
                    1
                ],
                "metallicFactor" : 0
            }
        }
    ],
    "meshes" : [
        {
            "name" : "VirginiaSTRINGS",
            "primitives" : [
                {
                    "attributes" : {
                        "POSITION" : 0,
                        "NORMAL" : 1,
                        "TEXCOORD_0" : 2
                    },
                    "indices" : 3,
                    "material" : 0
                }
            ]
        }
    ],
    "accessors" : [
        {
            "bufferView" : 0,
            "componentType" : 5126,
            "count" : 20517,
            "max" : [
                6.817339897155762,
                9.194806098937988,
                8.056062698364258
            ],
            "min" : [
                -10.820618629455566,
                -7.965703010559082,
                -7.104189395904541
            ],
            "type" : "VEC3"
        },
        {
            "bufferView" : 1,
            "componentType" : 5126,
            "count" : 20517,
            "type" : "VEC3"
        },
        {
            "bufferView" : 2,
            "componentType" : 5126,
            "count" : 20517,
            "type" : "VEC2"
        },
        {
            "bufferView" : 3,
            "componentType" : 5123,
            "count" : 114450,
            "type" : "SCALAR"
        }
    ],
    "bufferViews" : [
        {
            "buffer" : 0,
            "byteLength" : 246204,
            "byteOffset" : 0
        },
        {
            "buffer" : 0,
            "byteLength" : 246204,
            "byteOffset" : 246204
        },
        {
            "buffer" : 0,
            "byteLength" : 164136,
            "byteOffset" : 492408
        },
        {
            "buffer" : 0,
            "byteLength" : 228900,
            "byteOffset" : 656544
        }
    ],
    "buffers" : [
        {
            "byteLength" : 885444,
            "uri" : "data:application/octet-stream;base64,"
        }
    ]
}
