{
    "asset" : {
        "generator" : "Khronos glTF Blender I/O v1.5.17",
        "version" : "2.0"
    },
    "scene" : 0,
    "scenes" : [
        {
            "name" : "Scene",
            "nodes" : [
                0
            ]
        }
    ],
    "nodes" : [
        {
            "mesh" : 0,
            "name" : "waiSTRINGS",
            "rotation" : [
                0.7071068286895752,
                0,
                0,
                0.7071067094802856
            ]
        }
    ],
    "materials" : [
        {
            "doubleSided" : true,
            "name" : "3.001",
            "pbrMetallicRoughness" : {
                "baseColorFactor" : [
                    0.8039000034332275,
                    0.5216000080108643,
                    0,
                    1
                ],
                "metallicFactor" : 0
            }
        }
    ],
    "meshes" : [
        {
            "name" : "waiSTRINGS",
            "primitives" : [
                {
                    "attributes" : {
                        "POSITION" : 0,
                        "NORMAL" : 1,
                        "TEXCOORD_0" : 2
                    },
                    "indices" : 3,
                    "material" : 0
                }
            ]
        }
    ],
    "accessors" : [
        {
            "bufferView" : 0,
            "componentType" : 5126,
            "count" : 9335,
            "max" : [
                6.69774055480957,
                9.194221496582031,
                8.056264877319336
            ],
            "min" : [
                -10.81994342803955,
                -5.71330451965332,
                -7.104782581329346
            ],
            "type" : "VEC3"
        },
        {
            "bufferView" : 1,
            "componentType" : 5126,
            "count" : 9335,
            "type" : "VEC3"
        },
        {
            "bufferView" : 2,
            "componentType" : 5126,
            "count" : 9335,
            "type" : "VEC2"
        },
        {
            "bufferView" : 3,
            "componentType" : 5123,
            "count" : 52188,
            "type" : "SCALAR"
        }
    ],
    "bufferViews" : [
        {
            "buffer" : 0,
            "byteLength" : 112020,
            "byteOffset" : 0
        },
        {
            "buffer" : 0,
            "byteLength" : 112020,
            "byteOffset" : 112020
        },
        {
            "buffer" : 0,
            "byteLength" : 74680,
            "byteOffset" : 224040
        },
        {
            "buffer" : 0,
            "byteLength" : 104376,
            "byteOffset" : 298720
        }
    ],
    "buffers" : [
        {
            "byteLength" : 403096,
            "uri" : "data:application/octet-stream;base64,"
        }
    ]
}
